<svg width="1197" height="807" viewBox="0 0 1197 807" fill="none" xmlns="http://www.w3.org/2000/svg">
<path d="M763.024 805.177C713.352 797.763 666.42 771.338 628.57 729.472C586.442 682.875 566.804 635.385 533.21 498.844C529.12 482.228 517.104 435.065 506.508 394.037C495.909 353.009 477.03 278.476 464.553 228.409C447.476 159.885 441.38 137.092 439.896 136.214C438.275 135.256 437.801 135.658 437.234 138.466C435.995 144.623 375.571 379.49 357.367 448.906C317.329 601.602 310.586 624.646 301.864 638.661C286.447 663.43 257.707 677.778 227.047 676.017C204.524 674.725 188.608 667.252 174.063 651.14C159.868 635.418 156.823 628.38 142.308 577.755C132.018 541.867 121.294 500.951 103.37 429.179C95.4093 397.303 79.3645 334.051 67.7144 288.613C28.8491 137.032 1.76308 29.7507 0.596616 22.7735C-1.11757 12.5199 0.785494 7.06085 7.30177 3.539C12.2282 0.876422 13.2731 0.821213 63.6324 0.562861C114.906 0.299266 114.947 0.302224 120.229 3.09646C126.311 6.31479 131.675 12.5579 134.566 19.7825C135.672 22.5462 141.91 46.7108 148.428 73.4815C174.024 178.604 235.94 427.157 237.802 432.261C238.3 433.625 238.697 433.305 239.321 431.027C250.531 390.134 266.082 329.696 288.972 238.059C327.412 84.1794 328.748 79.1176 333.904 67.801C348.635 35.4534 375.594 12.0802 408.866 2.80692C421.597 -0.741116 449.423 -0.966936 463.298 2.36571C500.021 11.1862 528.205 33.1103 543.739 64.9412C549.715 77.1917 549.936 77.9302 564.064 133.253C575.221 176.928 588.361 229.529 638.764 432.261C647.951 469.219 657.504 507.469 659.987 517.255C675.527 578.468 689.54 607.92 718.408 640.051C746.926 671.793 779.404 693.055 823.817 709.048C846.953 717.382 868.224 723.049 882.38 724.653C889.129 725.418 896.455 726.524 898.664 727.11C914.308 731.275 919.148 749.52 907.913 761.964C900.774 769.869 877.67 784.423 859.974 792.168C830.08 805.246 795.005 809.954 763.024 805.177ZM923.651 711.447C921.81 711.169 915.786 710.338 910.265 709.598C846.217 701.012 780.364 660.105 738.707 603.035C709.486 562.995 693.365 521.637 685.841 467.399C684.139 455.149 683.922 432.994 683.581 238.326C683.35 106.177 683.514 37.4794 684.131 21.5146C684.27 17.8884 685.889 2.96025 703.108 1.8335C709.753 1.39952 721.926 1.25397 745.735 1.11707C796.846 0.822895 801.843 1.31795 806.804 7.15459C812.749 14.1503 812.665 12.789 812.637 99.6133L812.612 180.107L801.388 193.67C775.953 224.414 766.62 248.802 763.415 292.929C762.282 308.493 762.352 312.085 763.942 320.671C768.213 343.707 782.668 362.658 805.69 375.413L812.66 379.274L812.662 401.144C812.665 455.028 819.286 484.339 838.051 513.496C858.78 545.715 887.778 564.48 924.985 569.752L930.785 570.573L932.651 576.937C937.746 594.311 946.012 604.916 957.844 609.261C962.436 610.95 965.745 611.231 973.764 610.616C997.486 608.797 1013.74 599.491 1036.44 574.722C1054.03 555.538 1061.07 541.478 1062.23 523.21L1062.84 513.666L1067.81 510.446C1075.89 505.211 1085.32 493.873 1089.4 484.476C1092.45 477.438 1093.14 474.238 1093.55 465.256C1094.07 453.591 1093.06 447.397 1088.5 434.404C1086.02 427.304 1085.79 425.638 1086.97 423.204C1087.73 421.634 1095.48 412.066 1104.19 401.949C1125.12 377.638 1134.78 362.488 1141.44 343.481C1148.64 322.968 1142.51 300.93 1127.22 292.346C1118.31 287.344 1113.82 287.332 1099.84 292.273C1097.92 292.95 1096.2 291.08 1089.19 280.702C1084.59 273.894 1078.35 263.732 1075.33 258.121L1069.82 247.918L1069.39 135.418C1069.17 78.2073 1069.27 28.4548 1069.63 18.8385C1069.71 16.6212 1070.72 4.85819 1082.94 1.91672C1086.9 0.962827 1103.58 0.646755 1135.58 0.91763C1180.27 1.29628 1187.16 1.30798 1191.3 7.12249C1194.55 11.4479 1196.03 16.4422 1196.38 21.8835L1196.82 204.243C1197.41 449.393 1196.98 464.883 1188.57 501.301C1163.64 609.225 1081.31 691.481 980.537 709.14C970.033 710.982 931.069 712.563 923.651 711.447ZM961.114 581.75C959.214 579.65 956.826 574.332 954.887 567.877C953.157 562.121 948.504 548.811 944.548 538.301C930.936 502.135 928.715 495.473 927.353 486.691C925.671 475.848 927.002 465.652 931.577 454.387C937.506 439.783 934.68 427.798 920.066 405.558L913.713 395.886L912.932 383.894C911.998 369.51 909.978 365.096 902.205 360.46C889.363 352.797 877.983 351.583 864.295 356.412C853.984 360.054 840.26 360.548 829.907 357.652C812.768 352.855 796.506 339.614 790.117 325.251C786.593 317.327 786.457 316.472 786.627 303.425C786.833 287.463 789.47 269.018 793.401 255.996C798.512 239.063 802.585 231.885 817.556 213.418C823.044 206.647 830.147 197.214 833.341 192.457C844.186 176.3 847.017 174.922 876.443 171.493C885.228 170.469 895.258 169.63 898.731 169.629C902.205 169.628 907.977 168.633 911.56 167.42C915.142 166.207 918.981 165.421 920.088 165.675C922.644 166.258 924.209 170.766 924.209 177.539C924.209 186.443 927.59 190.449 939.609 195.782C945.284 198.3 951.026 201.213 952.373 202.255C955.961 205.034 957.984 204.607 961.647 200.297C965.57 195.681 972.569 191.885 977.229 191.848C981.302 191.819 988.302 193.916 1001.73 199.2C1010.65 202.707 1012.67 203.07 1019.77 202.441L1027.78 201.732L1029.49 206.949C1030.44 209.818 1032.55 216.604 1034.18 222.029C1045.05 258.045 1074.82 310.142 1088.81 317.629C1094.58 320.715 1102.11 320.485 1108.14 317.038C1115.83 312.642 1120.53 316.179 1120.53 326.369C1120.53 330.746 1119.33 334.758 1115.54 343.049C1109 357.348 1102.26 367.017 1084.65 387.379C1062.51 412.966 1059.97 421.28 1067.09 444.878C1073.08 464.729 1070.58 476.1 1058.04 486.096C1043.52 497.666 1041.82 500.44 1039.49 516.444C1037.7 528.75 1034.54 536.665 1027.34 546.929C1011.26 569.827 988.402 585.094 970.137 585.14C965.126 585.15 963.711 584.623 961.114 581.75Z" fill="#162024"/>
</svg>
